<svg width="52" height="35" viewBox="0 0 52 35" fill="none" xmlns="http://www.w3.org/2000/svg">
<path d="M41.925 13.2534C40.4517 5.77835 33.8867 0.166687 26 0.166687C19.7383 0.166687 14.3 3.72002 11.5917 8.92002C5.07 9.61335 0 15.1384 0 21.8334C0 29.005 5.82833 34.8334 13 34.8334H41.1667C47.1467 34.8334 52 29.98 52 24C52 18.28 47.5583 13.6434 41.925 13.2534ZM41.1667 30.5H13C8.21167 30.5 4.33333 26.6217 4.33333 21.8334C4.33333 17.3917 7.64833 13.6867 12.0467 13.2317L14.365 12.9934L15.4483 10.935C17.5067 6.97002 21.5367 4.50002 26 4.50002C31.6767 4.50002 36.5733 8.53002 37.6783 14.0984L38.3283 17.3484L41.6433 17.5867C45.0233 17.8034 47.6667 20.6417 47.6667 24C47.6667 27.575 44.7417 30.5 41.1667 30.5ZM17.3333 19.6667H22.8583V26.1667H29.1417V19.6667H34.6667L26 11L17.3333 19.6667Z" fill="#0B99FF"/>
</svg>
