<svg width="20" height="18" viewBox="0 0 20 18" fill="none" xmlns="http://www.w3.org/2000/svg">
<path d="M3.65 12L6.9 7L6.3875 7.775C6.04583 8.29167 5.675 8.8625 5.275 9.4875C4.875 10.1125 4.50417 10.6875 4.1625 11.2125L3.65 12ZM0 14L4.5 7L0 0H12C12.3333 0 12.6458 0.075 12.9375 0.225C13.2292 0.375 13.4667 0.583333 13.65 0.85L17.675 6.525C17.225 6.34167 16.7625 6.20417 16.2875 6.1125C15.8125 6.02083 15.3333 5.98333 14.85 6L12 2H3.65L6.9 7L3.65 12H8.075C8.025 12.3333 8 12.6667 8 13C8 13.3333 8.025 13.6667 8.075 14H0ZM14.275 15.25L17.75 11.8L16.7 10.75L14.275 13.125L13.3 12.15L12.25 13.225L14.275 15.25ZM15 18C13.6167 18 12.4375 17.5125 11.4625 16.5375C10.4875 15.5625 10 14.3833 10 13C10 11.6167 10.4875 10.4375 11.4625 9.4625C12.4375 8.4875 13.6167 8 15 8C16.3833 8 17.5625 8.4875 18.5375 9.4625C19.5125 10.4375 20 11.6167 20 13C20 14.3833 19.5125 15.5625 18.5375 16.5375C17.5625 17.5125 16.3833 18 15 18Z" fill="#5F6368"/>
</svg>
