<svg width="81" height="80" viewBox="0 0 81 80" fill="none" xmlns="http://www.w3.org/2000/svg">
<path fill-rule="evenodd" clip-rule="evenodd" d="M40.5 80C62.5308 80 80.5 62.0308 80.5 40C80.5 17.9692 62.5308 0 40.5 0C18.4692 0 0.5 17.9692 0.5 40C0.5 62.0308 18.4692 80 40.5 80Z" fill="#EB5757"/>
<path d="M57.7364 26.7825H23.2636C23.1674 26.7825 23.0722 26.8021 22.9837 26.8401C22.8953 26.8781 22.8156 26.9337 22.7494 27.0036C22.6828 27.0734 22.6312 27.1562 22.5978 27.2467C22.5643 27.3372 22.5496 27.4336 22.5547 27.53L24.3661 62.4815C24.4462 64.0364 25.7283 65.2545 27.2861 65.2545H53.7137C55.2717 65.2545 56.5538 64.0364 56.6338 62.4815L58.4452 27.53C58.4502 27.4336 58.4356 27.3372 58.4021 27.2467C58.3686 27.1562 58.317 27.0734 58.2505 27.0036C58.1843 26.9337 58.1046 26.8781 58.0162 26.8401C57.9278 26.8021 57.8326 26.7825 57.7364 26.7825ZM29.2467 33.8286C29.2336 33.3529 29.407 32.8995 29.7356 32.5526C30.0642 32.2057 30.5075 32.007 30.9831 31.9928C31.973 31.9725 32.7945 32.7493 32.823 33.7312L33.4813 58.2662C33.4886 58.5009 33.4491 58.7346 33.3651 58.9539C33.2812 59.1731 33.1545 59.3735 32.9923 59.5432C32.831 59.7139 32.6376 59.8512 32.4232 59.9471C32.2088 60.043 31.9776 60.0957 31.7428 60.1021H31.6902C31.2327 60.1021 30.7995 59.9287 30.4639 59.6103C30.2934 59.4495 30.1564 59.2566 30.0606 59.0426C29.9649 58.8287 29.9124 58.598 29.9061 58.3637L29.2467 33.8286ZM38.7119 58.2875V33.7493C38.7119 32.7625 39.5142 31.9601 40.5 31.9601C41.4858 31.9601 42.2881 32.7625 42.2881 33.7493V58.2875C42.2881 59.2753 41.4858 60.0787 40.5 60.0787C39.5142 60.0787 38.7119 59.2754 38.7119 58.2875ZM51.0939 58.3615C51.0878 58.5961 51.0354 58.8272 50.9397 59.0415C50.844 59.2558 50.7068 59.449 50.5361 59.6101C50.2005 59.9286 49.7673 60.102 49.3098 60.102H49.2541C49.0196 60.0955 48.7888 60.0427 48.5748 59.9466C48.3609 59.8505 48.1681 59.7131 48.0075 59.5422C47.8452 59.3723 47.7184 59.1718 47.6344 58.9524C47.5505 58.7329 47.5111 58.499 47.5186 58.2642L48.1769 33.7332C48.2053 32.7504 49.0208 31.9684 50.0045 31.9928H50.0167C50.4923 32.007 50.9356 32.2057 51.2642 32.5526C51.5928 32.8995 51.7662 33.3529 51.7531 33.8286L51.0939 58.3615ZM61.2812 21.3145V23.197H19.7188V21.3145C19.7188 20.2759 20.5636 19.4311 21.6022 19.4311H35.2734C35.4484 19.431 35.6172 19.3664 35.7474 19.2496C35.8777 19.1328 35.9603 18.972 35.9794 18.7981C36.232 16.4876 38.1753 14.7451 40.5 14.7451C42.8247 14.7451 44.768 16.4876 45.0206 18.7981C45.0397 18.972 45.1223 19.1328 45.2526 19.2496C45.3828 19.3664 45.5516 19.431 45.7266 19.4311H59.3978C60.4364 19.4311 61.2812 20.2759 61.2812 21.3145Z" fill="white"/>
</svg>
