<svg width="18" height="18" viewBox="0 0 18 18" fill="none" xmlns="http://www.w3.org/2000/svg">
<path d="M8.16663 4.83366H9.83329V6.50033H8.16663V4.83366ZM8.16663 8.16699H9.83329V13.167H8.16663V8.16699ZM8.99996 0.666992C4.39996 0.666992 0.666626 4.40033 0.666626 9.00033C0.666626 13.6003 4.39996 17.3337 8.99996 17.3337C13.6 17.3337 17.3333 13.6003 17.3333 9.00033C17.3333 4.40033 13.6 0.666992 8.99996 0.666992ZM8.99996 15.667C5.32496 15.667 2.33329 12.6753 2.33329 9.00033C2.33329 5.32533 5.32496 2.33366 8.99996 2.33366C12.675 2.33366 15.6666 5.32533 15.6666 9.00033C15.6666 12.6753 12.675 15.667 8.99996 15.667Z" fill="#323232"/>
</svg>
