<svg width="20" height="20" viewBox="0 0 20 20" fill="none" xmlns="http://www.w3.org/2000/svg">
<path d="M4.16671 1.66668C4.16671 1.20834 3.79171 0.833344 3.33337 0.833344C2.87504 0.833344 2.50004 1.20834 2.50004 1.66668V5.00001H0.833374V13.3333C0.833374 14.4167 1.53337 15.3333 2.50004 15.6833V19.1667H4.16671V15.6833C5.13337 15.3333 5.83337 14.4167 5.83337 13.3333V5.00001H4.16671V1.66668ZM3.33337 14.1667C2.87504 14.1667 2.50004 13.7917 2.50004 13.3333V11.6667H4.16671V13.3333C4.16671 13.7917 3.79171 14.1667 3.33337 14.1667ZM2.50004 10V6.66668H4.16671V10H2.50004ZM10.8334 1.66668C10.8334 1.20834 10.4584 0.833344 10 0.833344C9.54171 0.833344 9.16671 1.20834 9.16671 1.66668V5.00001H7.50004V13.3333C7.50004 14.4167 8.20004 15.3333 9.16671 15.6833V19.1667H10.8334V15.6833C11.8 15.3333 12.5 14.4167 12.5 13.3333V5.00001H10.8334V1.66668ZM10 14.1667C9.54171 14.1667 9.16671 13.7917 9.16671 13.3333V11.6667H10.8334V13.3333C10.8334 13.7917 10.4584 14.1667 10 14.1667ZM9.16671 10V6.66668H10.8334V10H9.16671ZM17.5 5.00001V1.66668C17.5 1.20834 17.125 0.833344 16.6667 0.833344C16.2084 0.833344 15.8334 1.20834 15.8334 1.66668V5.00001H14.1667V13.3333C14.1667 14.4167 14.8667 15.3333 15.8334 15.6833V19.1667H17.5V15.6833C18.4667 15.3333 19.1667 14.4167 19.1667 13.3333V5.00001H17.5ZM16.6667 14.1667C16.2084 14.1667 15.8334 13.7917 15.8334 13.3333V11.6667H17.5V13.3333C17.5 13.7917 17.125 14.1667 16.6667 14.1667ZM15.8334 10V6.66668H17.5V10H15.8334Z" fill="#1C1C1C"/>
</svg>
