<svg width="48" height="48" viewBox="0 0 48 48" fill="none" xmlns="http://www.w3.org/2000/svg">
<path d="M0 18.0002L23.112 32.7092C23.376 32.9042 23.688 33.0002 24 33.0002C24.312 33.0002 24.624 32.9042 24.888 32.7092L48 18.0002L24.9 0.300229C24.6402 0.105956 24.3244 0.000976562 24 0.000976562C23.6756 0.000976562 23.3598 0.105956 23.1 0.300229L0 18.0002Z" fill="#64B5F6"/>
<path d="M39 0H9C7.347 0 6 1.347 6 3V36C6 36.828 6.672 37.5 7.5 37.5H40.5C41.328 37.5 42 36.828 42 36V3C42 1.347 40.656 0 39 0Z" fill="#ECEFF1"/>
<path d="M13.5 9H34.5C35.328 9 36 8.328 36 7.5C36 6.672 35.328 6 34.5 6H13.5C12.672 6 12 6.672 12 7.5C12 8.328 12.672 9 13.5 9ZM34.5 12H13.5C12.672 12 12 12.672 12 13.5C12 14.328 12.672 15 13.5 15H34.5C35.328 15 36 14.328 36 13.5C36 12.672 35.328 12 34.5 12ZM25.5 18H13.5C12.672 18 12 18.672 12 19.5C12 20.328 12.672 21 13.5 21H25.5C26.328 21 27 20.328 27 19.5C27 18.672 26.328 18 25.5 18Z" fill="#90A4AE"/>
<path d="M24.888 32.709C24.624 32.904 24.312 33 24 33C23.688 33 23.376 32.904 23.112 32.709L0 18V45C0 46.656 1.344 48 3 48H45C46.656 48 48 46.656 48 45V18L24.888 32.709Z" fill="#1E88E5"/>
<path d="M45 48H3C1.317 48 0 46.683 0 45C0.00013415 44.7646 0.0555915 44.5326 0.161898 44.3226C0.268205 44.1125 0.422385 43.9305 0.612 43.791L23.112 28.791C23.376 28.596 23.688 28.5 24 28.5C24.312 28.5 24.624 28.596 24.888 28.791L47.388 43.791C47.5776 43.9305 47.7318 44.1125 47.8381 44.3226C47.9444 44.5326 47.9999 44.7646 48 45C48 46.683 46.683 48 45 48Z" fill="#2196F3"/>
</svg>
