<svg width="80" height="80" viewBox="0 0 80 80" fill="none" xmlns="http://www.w3.org/2000/svg">
<g clip-path="url(#clip0_1520_8639)">
<path d="M40 6.66602C21.6 6.66602 6.66663 21.5993 6.66663 39.9994C6.66663 58.3994 21.6 73.3327 40 73.3327C58.4 73.3327 73.3333 58.3994 73.3333 39.9994C73.3333 21.5993 58.4 6.66602 40 6.66602ZM40 66.666C25.3 66.666 13.3333 54.6994 13.3333 39.9994C13.3333 25.2994 25.3 13.3327 40 13.3327C54.7 13.3327 66.6666 25.2994 66.6666 39.9994C66.6666 54.6994 54.7 66.666 40 66.666ZM55.3 25.266L33.3333 47.2327L24.7 38.6327L20 43.3327L33.3333 56.666L60 29.9993L55.3 25.266Z" fill="#219653"/>
</g>
<defs>
<clipPath id="clip0_1520_8639">
<rect width="80" height="80" fill="white"/>
</clipPath>
</defs>
</svg>
