<svg width="21" height="21" viewBox="0 0 21 21" fill="none" xmlns="http://www.w3.org/2000/svg">
<g clip-path="url(#clip0_2022_5365)">
<path d="M9.5 6.33329H11.1667V7.99996H9.5V6.33329ZM9.5 9.66663H11.1667V14.6666H9.5V9.66663ZM10.3333 2.16663C5.73333 2.16663 2 5.89996 2 10.5C2 15.1 5.73333 18.8333 10.3333 18.8333C14.9333 18.8333 18.6667 15.1 18.6667 10.5C18.6667 5.89996 14.9333 2.16663 10.3333 2.16663ZM10.3333 17.1666C6.65833 17.1666 3.66667 14.175 3.66667 10.5C3.66667 6.82496 6.65833 3.83329 10.3333 3.83329C14.0083 3.83329 17 6.82496 17 10.5C17 14.175 14.0083 17.1666 10.3333 17.1666Z" fill="#5C5C5C"/>
</g>
<defs>
<clipPath id="clip0_2022_5365">
<rect width="20" height="20" fill="white" transform="translate(0.333496 0.5)"/>
</clipPath>
</defs>
</svg>
