<svg width="18" height="18" viewBox="0 0 18 18" fill="none" xmlns="http://www.w3.org/2000/svg">
<path d="M8.99169 0.666626C4.39169 0.666626 0.666687 4.39996 0.666687 8.99996C0.666687 13.6 4.39169 17.3333 8.99169 17.3333C13.6 17.3333 17.3334 13.6 17.3334 8.99996C17.3334 4.39996 13.6 0.666626 8.99169 0.666626ZM14.7667 5.66663H12.3084C12.0417 4.62496 11.6584 3.62496 11.1584 2.69996C12.6917 3.22496 13.9667 4.29163 14.7667 5.66663ZM9.00002 2.36663C9.69169 3.36663 10.2334 4.47496 10.5917 5.66663H7.40835C7.76669 4.47496 8.30835 3.36663 9.00002 2.36663ZM2.55002 10.6666C2.41669 10.1333 2.33335 9.57496 2.33335 8.99996C2.33335 8.42496 2.41669 7.86663 2.55002 7.33329H5.36669C5.30002 7.88329 5.25002 8.43329 5.25002 8.99996C5.25002 9.56663 5.30002 10.1166 5.36669 10.6666H2.55002ZM3.23335 12.3333H5.69169C5.95835 13.375 6.34169 14.375 6.84169 15.3C5.30835 14.775 4.03335 13.7166 3.23335 12.3333ZM5.69169 5.66663H3.23335C4.03335 4.28329 5.30835 3.22496 6.84169 2.69996C6.34169 3.62496 5.95835 4.62496 5.69169 5.66663ZM9.00002 15.6333C8.30835 14.6333 7.76669 13.525 7.40835 12.3333H10.5917C10.2334 13.525 9.69169 14.6333 9.00002 15.6333ZM10.95 10.6666H7.05002C6.97502 10.1166 6.91669 9.56663 6.91669 8.99996C6.91669 8.43329 6.97502 7.87496 7.05002 7.33329H10.95C11.025 7.87496 11.0834 8.43329 11.0834 8.99996C11.0834 9.56663 11.025 10.1166 10.95 10.6666ZM11.1584 15.3C11.6584 14.375 12.0417 13.375 12.3084 12.3333H14.7667C13.9667 13.7083 12.6917 14.775 11.1584 15.3ZM12.6334 10.6666C12.7 10.1166 12.75 9.56663 12.75 8.99996C12.75 8.43329 12.7 7.88329 12.6334 7.33329H15.45C15.5834 7.86663 15.6667 8.42496 15.6667 8.99996C15.6667 9.57496 15.5834 10.1333 15.45 10.6666H12.6334Z" fill="#0B99FF"/>
</svg>
