<svg width="16" height="19" viewBox="0 0 16 19" fill="none" xmlns="http://www.w3.org/2000/svg">
<path d="M10.4998 15.3333C10.4998 16.714 9.38048 17.8333 7.99977 17.8333C6.61906 17.8333 5.49977 16.714 5.49977 15.3333M9.49685 4.69879C9.85977 4.32386 10.0831 3.81301 10.0831 3.24999C10.0831 2.0994 9.15036 1.16666 7.99977 1.16666C6.84917 1.16666 5.91643 2.0994 5.91643 3.24999C5.91643 3.81301 6.13977 4.32386 6.50268 4.69879M12.9998 8.83332C12.9998 7.68405 12.473 6.58185 11.5353 5.76919C10.5976 4.95654 9.32585 4.49999 7.99977 4.49999C6.67368 4.49999 5.40192 4.95654 4.46423 5.76919C3.52655 6.58185 2.99977 7.68405 2.99977 8.83332C2.99977 10.7348 2.52821 12.1255 1.93982 13.1206C1.26922 14.2547 0.933914 14.8217 0.947155 14.9572C0.962303 15.1122 0.990197 15.1611 1.11588 15.253C1.22574 15.3333 1.77769 15.3333 2.88159 15.3333H13.1179C14.2218 15.3333 14.7738 15.3333 14.8837 15.253C15.0093 15.1611 15.0372 15.1122 15.0524 14.9572C15.0656 14.8217 14.7303 14.2547 14.0597 13.1206C13.4713 12.1255 12.9998 10.7348 12.9998 8.83332Z" stroke="black" stroke-width="1.5" stroke-linecap="round" stroke-linejoin="round"/>
</svg>
