<svg width="43" height="52" viewBox="0 0 43 52" fill="none" xmlns="http://www.w3.org/2000/svg">
<path d="M38.7364 12.7825H4.26359C4.16737 12.7825 4.07215 12.8021 3.98375 12.8401C3.89535 12.8781 3.8156 12.9337 3.74937 13.0036C3.68283 13.0734 3.63124 13.1562 3.59777 13.2467C3.56429 13.3372 3.54963 13.4336 3.55469 13.53L5.36609 48.4815C5.44625 50.0364 6.72828 51.2545 8.28609 51.2545H34.7137C36.2717 51.2545 37.5538 50.0364 37.6338 48.4815L39.4452 13.53C39.4502 13.4336 39.4356 13.3372 39.4021 13.2467C39.3686 13.1562 39.317 13.0734 39.2505 13.0036C39.1843 12.9337 39.1046 12.8781 39.0162 12.8401C38.9278 12.8021 38.8326 12.7825 38.7364 12.7825ZM10.2467 19.8286C10.2336 19.3529 10.407 18.8995 10.7356 18.5526C11.0642 18.2057 11.5075 18.007 11.9831 17.9928C12.973 17.9725 13.7945 18.7493 13.823 19.7312L14.4813 44.2662C14.4886 44.5009 14.4491 44.7346 14.3651 44.9539C14.2812 45.1731 14.1545 45.3735 13.9923 45.5432C13.831 45.7139 13.6376 45.8512 13.4232 45.9471C13.2088 46.043 12.9776 46.0957 12.7428 46.1021H12.6902C12.2327 46.1021 11.7995 45.9287 11.4639 45.6103C11.2934 45.4495 11.1564 45.2566 11.0606 45.0426C10.9649 44.8287 10.9124 44.598 10.9061 44.3637L10.2467 19.8286ZM19.7119 44.2875V19.7493C19.7119 18.7625 20.5142 17.9601 21.5 17.9601C22.4858 17.9601 23.2881 18.7625 23.2881 19.7493V44.2875C23.2881 45.2753 22.4858 46.0787 21.5 46.0787C20.5142 46.0787 19.7119 45.2754 19.7119 44.2875ZM32.0939 44.3615C32.0878 44.5961 32.0354 44.8272 31.9397 45.0415C31.844 45.2558 31.7068 45.449 31.5361 45.6101C31.2005 45.9286 30.7673 46.102 30.3098 46.102H30.2541C30.0196 46.0955 29.7888 46.0427 29.5748 45.9466C29.3609 45.8505 29.1681 45.7131 29.0075 45.5422C28.8452 45.3723 28.7184 45.1718 28.6344 44.9524C28.5505 44.7329 28.5111 44.499 28.5186 44.2642L29.1769 19.7332C29.2053 18.7504 30.0208 17.9684 31.0045 17.9928H31.0167C31.4923 18.007 31.9356 18.2057 32.2642 18.5526C32.5928 18.8995 32.7662 19.3529 32.7531 19.8286L32.0939 44.3615ZM42.2812 7.31449V9.19699H0.71875V7.31449C0.71875 6.2759 1.56359 5.43105 2.60219 5.43105H16.2734C16.4484 5.43098 16.6172 5.36636 16.7474 5.24956C16.8777 5.13276 16.9603 4.972 16.9794 4.79809C17.232 2.48762 19.1753 0.745117 21.5 0.745117C23.8247 0.745117 25.768 2.48762 26.0206 4.79809C26.0397 4.972 26.1223 5.13276 26.2526 5.24956C26.3828 5.36636 26.5516 5.43098 26.7266 5.43105H40.3978C41.4364 5.43105 42.2812 6.2759 42.2812 7.31449Z" fill="white"/>
</svg>
